<svg width="2139" height="364" viewBox="0 0 2139 364" fill="none" xmlns="http://www.w3.org/2000/svg">
<mask id="mask0_21_4" style="mask-type:alpha" maskUnits="userSpaceOnUse" x="0" y="0" width="2139" height="364">
<rect y="0.434814" width="2139" height="363.13" fill="#D9D9D9"/>
</mask>
<g mask="url(#mask0_21_4)">
<path d="M333.674 57.6641H420.578L388.94 237.88C388.139 244.287 388.272 250.428 389.34 256.302C390.675 261.908 393.345 266.447 397.35 269.918C401.355 273.389 407.095 275.258 414.57 275.525C422.313 275.792 429.121 274.19 434.995 270.719C440.869 267.248 445.541 262.576 449.012 256.702C452.749 250.828 455.286 244.421 456.621 237.479L487.858 57.6641H574.362L542.724 245.889C538.986 269.918 530.576 289.942 517.494 305.961C504.411 321.98 488.125 333.994 468.635 342.004C449.412 350.014 428.454 354.018 405.76 354.018C383.867 354.018 364.511 350.014 347.691 342.004C330.87 333.994 318.189 321.98 309.645 305.961C301.368 289.942 298.832 269.918 302.036 245.889L333.674 57.6641ZM753.629 241.884L764.842 177.808H909.415C907.546 201.036 902.607 223.062 894.598 243.887C886.588 264.445 875.508 282.733 861.358 298.752C847.208 314.505 829.987 327.053 809.696 336.397C789.672 345.475 766.711 350.014 740.814 350.014C718.387 350.014 698.096 346.142 679.941 338.4C662.053 330.657 646.968 319.844 634.687 305.961C622.672 292.078 613.995 275.925 608.656 257.503C603.583 239.081 602.648 219.191 605.852 197.832C609.323 175.672 616.398 155.514 627.078 137.359C638.024 119.204 651.64 103.586 667.926 90.5033C684.48 77.421 703.035 67.4091 723.593 60.4674C744.151 53.2588 765.91 49.6545 788.871 49.6545C817.439 49.6545 841.334 56.3292 860.557 69.6785C880.047 83.0277 896.066 99.9813 908.614 120.539L823.713 156.983C819.975 147.905 814.902 140.163 808.495 133.755C802.087 127.08 792.876 123.743 780.862 123.743C770.449 123.743 760.571 125.612 751.226 129.35C741.882 132.821 733.472 137.893 725.996 144.568C718.52 150.976 712.113 158.718 706.773 167.796C701.7 176.873 698.229 186.885 696.36 197.832C694.759 208.244 694.625 218.123 695.96 227.467C697.295 236.812 700.098 245.088 704.37 252.297C708.909 259.505 714.916 265.246 722.392 269.517C730.134 273.522 739.479 275.525 750.425 275.525C758.168 275.525 765.109 274.857 771.25 273.522C777.391 271.92 782.864 269.784 787.67 267.115C792.742 264.178 797.281 260.573 801.286 256.302C805.291 252.03 808.895 247.224 812.099 241.884H753.629ZM983.294 197.832C981.959 206.642 981.692 215.186 982.493 223.462C983.561 231.472 985.964 238.681 989.702 245.088C993.44 251.496 998.646 256.702 1005.32 260.707C1012 264.445 1020.14 266.314 1029.75 266.314C1039.63 266.581 1048.71 264.979 1056.98 261.508C1065.53 257.77 1073 252.831 1079.41 246.69C1086.08 240.282 1091.56 232.94 1095.83 224.664C1100.1 216.12 1103.04 207.176 1104.64 197.832C1105.97 189.021 1106.11 180.478 1105.04 172.201C1104.24 163.924 1101.97 156.582 1098.23 150.175C1094.76 143.767 1089.69 138.694 1083.01 134.956C1076.61 130.952 1068.33 128.949 1058.18 128.949C1048.31 128.949 1039.09 130.685 1030.55 134.156C1022.27 137.626 1014.8 142.566 1008.12 148.973C1001.72 155.381 996.376 162.723 992.105 171C987.833 179.276 984.896 188.22 983.294 197.832ZM891.585 197.832C894.788 176.206 901.596 156.449 912.009 138.561C922.421 120.406 935.504 104.787 951.256 91.7048C967.008 78.3555 984.629 68.0765 1004.12 60.8679C1023.88 53.3923 1044.7 49.6545 1066.59 49.6545C1088.22 49.6545 1107.71 53.3923 1125.06 60.8679C1142.42 68.3435 1156.83 78.8895 1168.32 92.5057C1180.06 105.855 1188.34 121.607 1193.15 139.762C1198.22 157.65 1199.29 177.007 1196.35 197.832C1193.15 219.458 1186.47 239.481 1176.32 257.904C1166.18 276.326 1153.23 292.478 1137.48 306.361C1121.73 319.978 1103.84 330.657 1083.81 338.4C1064.06 346.142 1042.97 350.014 1020.54 350.014C998.379 350.014 978.622 346.009 961.268 337.999C943.914 329.99 929.497 319.043 918.016 305.16C906.803 291.01 898.793 274.857 893.987 256.702C889.449 238.28 888.648 218.657 891.585 197.832ZM1385.95 241.884L1397.16 177.808H1541.73C1539.86 201.036 1534.93 223.062 1526.92 243.887C1518.91 264.445 1507.83 282.733 1493.68 298.752C1479.53 314.505 1462.31 327.053 1442.01 336.397C1421.99 345.475 1399.03 350.014 1373.13 350.014C1350.71 350.014 1330.41 346.142 1312.26 338.4C1294.37 330.657 1279.29 319.844 1267.01 305.961C1254.99 292.078 1246.31 275.925 1240.97 257.503C1235.9 239.081 1234.97 219.191 1238.17 197.832C1241.64 175.672 1248.72 155.514 1259.4 137.359C1270.34 119.204 1283.96 103.586 1300.25 90.5033C1316.8 77.421 1335.35 67.4091 1355.91 60.4674C1376.47 53.2588 1398.23 49.6545 1421.19 49.6545C1449.76 49.6545 1473.65 56.3292 1492.88 69.6785C1512.37 83.0277 1528.38 99.9813 1540.93 120.539L1456.03 156.983C1452.29 147.905 1447.22 140.163 1440.81 133.755C1434.41 127.08 1425.19 123.743 1413.18 123.743C1402.77 123.743 1392.89 125.612 1383.54 129.35C1374.2 132.821 1365.79 137.893 1358.31 144.568C1350.84 150.976 1344.43 158.718 1339.09 167.796C1334.02 176.873 1330.55 186.885 1328.68 197.832C1327.08 208.244 1326.94 218.123 1328.28 227.467C1329.61 236.812 1332.42 245.088 1336.69 252.297C1341.23 259.505 1347.23 265.246 1354.71 269.517C1362.45 273.522 1371.8 275.525 1382.74 275.525C1390.49 275.525 1397.43 274.857 1403.57 273.522C1409.71 271.92 1415.18 269.784 1419.99 267.115C1425.06 264.178 1429.6 260.573 1433.6 256.302C1437.61 252.03 1441.21 247.224 1444.42 241.884H1385.95ZM1516.83 46.7419H1605L1641.98 165.065H1644.82L1721.05 46.7419H1809.22L1669.28 246.412L1653.92 337.999H1575.42L1590.78 246.412L1516.83 46.7419ZM1794.95 46.7419H1893.36L1933.75 211.712H1937.17L2032.17 46.7419H2130.58L2082.23 337.999H2004.86L2032.73 169.616H2030.46L1938.3 335.724H1891.66L1854.68 168.478H1852.41L1823.96 337.999H1746.6L1794.95 46.7419Z" fill="#00ADD8"/>
<rect x="103.29" y="34.676" width="186.927" height="52.7793" rx="6.59741" transform="rotate(8.93529 103.29 34.676)" fill="#00ADD8"/>
<path d="M128.498 15.9329C129.064 12.3334 132.441 9.8743 136.04 10.4402L263.78 30.5244C267.38 31.0903 269.839 34.467 269.273 38.0664L265.789 60.2254L125.014 38.0919L128.498 15.9329Z" fill="#00ADD8"/>
<rect x="246.167" y="329.444" width="186.927" height="52.7793" rx="6.59741" transform="rotate(-171.065 246.167 329.444)" fill="#00ADD8"/>
<path d="M220.958 348.188C220.392 351.787 217.015 354.247 213.416 353.681L85.6758 333.596C82.0763 333.031 79.6172 329.654 80.1831 326.054L83.6671 303.895L224.442 326.029L220.958 348.188Z" fill="#00ADD8"/>
<path d="M164.468 97.664L187.183 101.235L161.789 262.75L139.074 259.178C140.434 195.08 146.113 159.705 164.468 97.664Z" fill="#00ADD8"/>
<path d="M164.468 97.664L187.183 101.235L161.789 262.75L139.074 259.178C140.434 195.08 146.113 159.705 164.468 97.664Z" fill="#00ADD8"/>
<path d="M184.504 266.321L161.789 262.75L187.184 101.235L209.899 104.807C208.539 168.905 202.86 204.28 184.504 266.321Z" fill="#00ADD8"/>
<path d="M184.504 266.321L161.789 262.75L187.184 101.235L209.899 104.807C208.539 168.905 202.86 204.28 184.504 266.321Z" fill="#00ADD8"/>
</g>
</svg>
